<svg width="24" height="102" viewBox="0 0 24 102" fill="none" xmlns="http://www.w3.org/2000/svg">
<path d="M2.30263 101.004C2.30458 101.28 2.53002 101.502 2.80616 101.5L7.30604 101.468C7.58218 101.466 7.80445 101.241 7.80249 100.965C7.80054 100.688 7.5751 100.466 7.29896 100.468L3.29906 100.496L3.27074 96.4966C3.26879 96.2204 3.04335 95.9982 2.76722 96.0001C2.49108 96.0021 2.26881 96.2275 2.27077 96.5036L2.30263 101.004ZM0.858709 1.35624C28.7255 28.8312 29.4247 73.2861 2.44657 100.649L3.15866 101.351C30.5362 73.5831 29.809 28.4951 1.56079 0.644145L0.858709 1.35624Z" fill="white"/>
</svg>
